<!-- Generated by IcoMoon.io -->
<svg version="1.1" xmlns="http://www.w3.org/2000/svg" width="24" height="24" viewBox="0 0 24 24">
<title>fire</title>
<path fill="#fff" d="M16.5 6.75c-0.047 2.006-1.553 3.701-1.553 3.701 0-3.732-2.947-6.7-2.947-6.7s-0.040 2.221-1.532 4.461c-1.492-5.225-5.971-8.211-5.971-8.211 2.24 8.211-0.746 11.197-0.746 17.169 0 3.503 2.965 6.831 7.5 6.831 6.718 0 8.017-2.466 8.711-5.245 0.957-3.826-0.476-8.273-3.461-12.005zM18.507 18.391c-0.482 1.927-1.027 4.109-7.257 4.109-3.756 0-6-2.71-6-5.331 0-2.007 0.366-3.655 0.753-5.399 0.492-2.212 0.996-4.476 0.778-7.471 2.313 3.202 3.136 7.444 3.136 7.444s2.153-3.023 2.732-4.427c0.443 0.902 0.851 3.935 0.851 6.934 0 0 1.992-1.641 3.486-4.108 1.573 2.821 2.14 5.771 1.521 8.249zM16.824 12.596l0.14 0.776c0.312 1.739 0.137 3.793-0.444 5.236-0.059 0.146-0.2 0.235-0.347 0.235-0.047 0-0.095-0.009-0.141-0.027-0.192-0.077-0.286-0.295-0.208-0.487 0.438-1.087 0.622-2.617 0.506-4.015-0.753 0.841-1.702 1.718-3.729 2.681l-0.38 0.179-0.136-0.396c-0.272-0.788-0.545-1.583-0.664-2.692-0.406 0.64-0.776 1.21-1.399 2.057l-0.381 0.519-0.264-0.588c-0.646-1.444-1.138-2.571-1.528-3.563-0.361 1.159-0.63 2.499-0.63 5.206 0 0.207-0.169 0.375-0.375 0.375-0.208 0-0.375-0.168-0.375-0.375 0-3.532 0.469-4.892 0.964-6.333l0.39-1.133 0.359 1.013c0.386 1.088 0.895 2.287 1.614 3.909 0.474-0.67 0.792-1.174 1.176-1.782l1.138-1.784v1.282c0 1.443 0.26 2.386 0.545 3.242 1.994-1.004 2.741-1.877 3.531-2.798l0.637-0.739z"></path>
</svg>
